<svg id="Layer_1" enable-background="new 0 0 100 100" height="512" viewBox="0 0 100 100" width="512" xmlns="http://www.w3.org/2000/svg"><path d="m80.1 10.2h-2v-5.1c0-3.1-2.1-5.1-5.1-5.1s-5.1 2-5.1 5.1v5.1h-33.2v-5.1c0-3.1-2-5.1-5.1-5.1s-5.1 2-5.1 5.1v5.1h-4.6c-9.7 0-17.9 8.2-17.9 17.9v54.1c0 9.7 8.2 17.9 17.9 17.9h60.2c9.7 0 17.9-8.2 17.9-17.9v-54.1c0-9.7-8.2-17.9-17.9-17.9zm-60.2 10.2h60.2c4.1 0 7.7 3.6 7.7 7.7v7.1h-75.6v-7.1c0-4.1 3.6-7.7 7.7-7.7zm60.2 69.4h-60.2c-4.1 0-7.7-3.6-7.7-7.7v-36.7h75.5v36.7c.1 4.1-3.5 7.7-7.6 7.7z"/></svg>