<svg id="Layer_1" enable-background="new 0 0 100 100" height="512" viewBox="0 0 100 100" width="512" xmlns="http://www.w3.org/2000/svg"><g><path d="m50 21.7c-9.6 0-17.2 7.6-17.2 17.2s7.6 17.2 17.2 17.2 17.2-7.6 17.2-17.2c0-9.1-7.6-17.2-17.2-17.2zm0 24.8c-4.1 0-7.1-3-7.1-7.1s3-7.1 7.1-7.1 7.1 3 7.1 7.1-3 7.1-7.1 7.1z"/><path d="m50 0c-21.8 0-40 16.2-40 35.9 0 23.2 11.1 45.5 30.4 60.6 2.5 2 6.1 3.5 9.6 3.5s6.6-1 9.6-3.5c19.3-15.7 30.4-37.4 30.4-60.6-.5-19.7-18.2-35.9-40-35.9zm3 88.9c-2 1.5-4.6 1.5-6.1 0-16.7-13.6-26.3-32.8-26.3-53 0-14.1 13.2-25.8 29.9-25.8 16.2 0 29.4 11.6 29.4 25.8-.5 20.2-10.2 39.4-26.9 53z"/></g></svg>